<svg width="137" height="137" viewBox="0 0 137 137" fill="none" xmlns="http://www.w3.org/2000/svg">
<path d="M71.3542 68.3564C74.1132 65.312 76.23 61.8394 77.7047 57.9387C79.1793 54.038 79.9167 49.9946 79.9167 45.8085C79.9167 41.6224 79.1793 37.579 77.7047 33.6783C76.23 29.7776 74.1132 26.305 71.3542 23.2606C77.0625 24.0217 81.8194 26.5429 85.625 30.8241C89.4306 35.1054 91.3333 40.1002 91.3333 45.8085C91.3333 51.5168 89.4306 56.5116 85.625 60.7929C81.8194 65.0741 77.0625 67.5953 71.3542 68.3564ZM102.75 114.308V97.1835C102.75 93.7585 101.989 90.5 100.467 87.408C98.9444 84.316 96.9465 81.5807 94.4729 79.2022C99.325 80.9147 103.82 83.1267 107.959 85.8382C112.097 88.5496 114.167 92.3314 114.167 97.1835V114.308H102.75ZM114.167 74.3502V62.9335H102.75V51.5168H114.167V40.1002H125.583V51.5168H137V62.9335H125.583V74.3502H114.167ZM45.6667 68.6418C39.3875 68.6418 34.0122 66.4061 29.5406 61.9345C25.0691 57.463 22.8333 52.0877 22.8333 45.8085C22.8333 39.5293 25.0691 34.154 29.5406 29.6825C34.0122 25.2109 39.3875 22.9752 45.6667 22.9752C51.9458 22.9752 57.3212 25.2109 61.7927 29.6825C66.2642 34.154 68.5 39.5293 68.5 45.8085C68.5 52.0877 66.2642 57.463 61.7927 61.9345C57.3212 66.4061 51.9458 68.6418 45.6667 68.6418ZM0 114.308V98.3252C0 95.0904 0.832465 92.1173 2.4974 89.4059C4.16233 86.6944 6.37431 84.6252 9.13333 83.1981C15.0319 80.2488 21.0257 78.0368 27.1146 76.5621C33.2035 75.0875 39.3875 74.3502 45.6667 74.3502C51.9458 74.3502 58.1299 75.0875 64.2188 76.5621C70.3076 78.0368 76.3014 80.2488 82.2 83.1981C84.959 84.6252 87.171 86.6944 88.8359 89.4059C90.5009 92.1173 91.3333 95.0904 91.3333 98.3252V114.308H0ZM45.6667 57.2252C48.8062 57.2252 51.4939 56.1073 53.7297 53.8715C55.9655 51.6357 57.0833 48.9481 57.0833 45.8085C57.0833 42.6689 55.9655 39.9812 53.7297 37.7455C51.4939 35.5097 48.8062 34.3918 45.6667 34.3918C42.5271 34.3918 39.8394 35.5097 37.6036 37.7455C35.3679 39.9812 34.25 42.6689 34.25 45.8085C34.25 48.9481 35.3679 51.6357 37.6036 53.8715C39.8394 56.1073 42.5271 57.2252 45.6667 57.2252ZM11.4167 102.892H79.9167V98.3252C79.9167 97.2786 79.655 96.3272 79.1318 95.471C78.6085 94.6147 77.9187 93.9488 77.0625 93.4731C71.925 90.9043 66.7399 88.9778 61.5073 87.6934C56.2747 86.409 50.9944 85.7668 45.6667 85.7668C40.3389 85.7668 35.0587 86.409 29.826 87.6934C24.5934 88.9778 19.4083 90.9043 14.2708 93.4731C13.4146 93.9488 12.7248 94.6147 12.2016 95.471C11.6783 96.3272 11.4167 97.2786 11.4167 98.3252V102.892Z" fill="white"/>
</svg>
