<svg width="137" height="137" viewBox="0 0 137 137" fill="none" xmlns="http://www.w3.org/2000/svg">
<path d="M28.5417 119.875C25.4021 119.875 22.7144 118.757 20.4786 116.521C18.2429 114.286 17.125 111.598 17.125 108.458V28.5417C17.125 25.4021 18.2429 22.7144 20.4786 20.4786C22.7144 18.2429 25.4021 17.125 28.5417 17.125H62.7917V28.5417H28.5417V108.458H108.458V74.2083H119.875V108.458C119.875 111.598 118.757 114.286 116.521 116.521C114.286 118.757 111.598 119.875 108.458 119.875H28.5417ZM91.3333 62.7917V45.6667H74.2083V34.25H91.3333V17.125H102.75V34.25H119.875V45.6667H102.75V62.7917H91.3333Z" fill="white"/>
</svg>
