<svg width="34" height="34" viewBox="0 0 34 34" fill="none" xmlns="http://www.w3.org/2000/svg">
<path d="M16.9698 17.05C15.0583 17.0527 13.2052 16.3923 11.7261 15.1815C10.2471 13.9707 9.23371 12.2844 8.85881 10.4101C8.4839 8.5358 8.77057 6.58947 9.67008 4.90291C10.5696 3.21635 12.0263 1.89397 13.7917 1.16117C15.5571 0.428362 17.5219 0.330505 19.3514 0.88428C21.1808 1.43806 22.7616 2.60917 23.8243 4.19802C24.8869 5.78686 25.3656 7.69506 25.1788 9.59735C24.9919 11.4996 24.1512 13.2783 22.7997 14.63C22.045 15.4106 21.1383 16.028 20.1355 16.4443C19.1328 16.8605 18.0554 17.0667 16.9698 17.05ZM0.469767 33.55V27.77C0.465668 26.6447 0.77135 25.54 1.35343 24.5769C1.93552 23.6138 2.77147 22.8295 3.76969 22.31C5.83725 21.2636 8.01823 20.4583 10.2697 19.91C14.6761 18.8434 19.2734 18.8434 23.6797 19.91C25.928 20.4584 28.1056 21.2637 30.1697 22.31C31.1643 22.8164 31.9961 23.5927 32.5697 24.55C33.1653 25.5179 33.4771 26.6336 33.4698 27.77V33.55H0.469767ZM4.59977 29.42H29.3498V27.77C29.3529 27.4159 29.262 27.0673 29.0863 26.7598C28.9106 26.4524 28.6565 26.1971 28.3498 26.02C26.5592 25.1184 24.6744 24.4175 22.7298 23.93C18.9685 23.0102 15.041 23.0102 11.2797 23.93C9.33459 24.4159 7.44964 25.1169 5.65971 26.02C5.35061 26.1897 5.09187 26.4381 4.90971 26.74C4.72724 27.0417 4.63053 27.3874 4.6298 27.74L4.59977 29.42ZM16.9698 12.92C17.9257 12.9225 18.8528 12.5933 19.5932 11.9885C20.3335 11.3838 20.8411 10.541 21.0295 9.60376C21.2178 8.66657 21.0752 7.69306 20.626 6.84925C20.1768 6.00544 19.4488 5.34359 18.5661 4.97657C17.6834 4.60954 16.7008 4.56008 15.7857 4.83661C14.8706 5.11314 14.0798 5.69855 13.5481 6.49298C13.0165 7.28742 12.7769 8.24168 12.8702 9.19306C12.9634 10.1444 13.3839 11.034 14.0597 11.71C14.4376 12.0983 14.8903 12.4057 15.3905 12.6137C15.8908 12.8217 16.4281 12.9259 16.9698 12.92Z" fill="#E3E3E3"/>
</svg>
